# xmcd
#
# Track frame offsets:
#	150
#	15942
#	37034
#	54897
#	80795
#	102722
#	133093
#	152383
#	175370
#	199597
#	221189
#	235806
#	253117
#	274129
#	295113
#	312804
#	341053
#
# Disc length: 4788 seconds
#
# Revision: 0
# Processed by: cddbd v1.5PL3 Copyright (c) Steve Scherf et al.
# Submitted via: audiograbber 1.82.01
#
DISCID=f712b211
DTITLE=Elton John - The Best Of
DYEAR=2003
DGENRE=Pop
TTITLE0=Are You Ready For Love
TTITLE1=Believe
TTITLE2=Can You Fell The Love Tonight
TTITLE3=Nikita
TTITLE4=Circle Of Live
TTITLE5=Someone Saved My Live Tonight
TTITLE6=Written In The Stars
TTITLE7=Sacrifice
TTITLE8=Bennie And The Jets
TTITLE9=Made In England
TTITLE10=Goodby Yellow Brick Road
TTITLE11=Sorry Seems To Be The Hardest
TTITLE12=I Guess That's Why They Call It The Blues
TTITLE13=This Train Don't Stop There Anymore
TTITLE14=Crocodile Rock
TTITLE15=Tiny Dancer
TTITLE16=Something About The Way You Look Tonight
EXTD=
EXTT0=
EXTT1=
EXTT2=
EXTT3=
EXTT4=
EXTT5=
EXTT6=
EXTT7=
EXTT8=
EXTT9=
EXTT10=
EXTT11=
EXTT12=
EXTT13=
EXTT14=
EXTT15=
EXTT16=
PLAYORDER=
